<mxfile host="app.diagrams.net" agent="Mozilla/5.0 (Windows NT 10.0; Win64; x64) AppleWebKit/537.36 (KHTML, like Gecko) Chrome/126.0.0.0 Safari/537.36" version="24.7.5">
  <diagram name="Trang-1" id="zT6jKC9qs1cckWH9U0Yu">
    <mxGraphModel dx="2338" dy="998" grid="0" gridSize="10" guides="1" tooltips="1" connect="1" arrows="1" fold="1" page="0" pageScale="1" pageWidth="827" pageHeight="1169" math="0" shadow="0">
      <root>
        <mxCell id="0" />
        <mxCell id="1" parent="0" />
        <mxCell id="YtPlqch4qI4Q10vfU_Bz-1" value="" style="endArrow=none;dashed=1;html=1;dashPattern=1 3;strokeWidth=2;rounded=0;" edge="1" parent="1">
          <mxGeometry width="50" height="50" relative="1" as="geometry">
            <mxPoint x="59" y="237" as="sourcePoint" />
            <mxPoint x="862" y="235" as="targetPoint" />
          </mxGeometry>
        </mxCell>
        <mxCell id="YtPlqch4qI4Q10vfU_Bz-3" value="" style="endArrow=none;dashed=1;html=1;dashPattern=1 3;strokeWidth=2;rounded=0;" edge="1" parent="1">
          <mxGeometry width="50" height="50" relative="1" as="geometry">
            <mxPoint x="60" y="237" as="sourcePoint" />
            <mxPoint x="64" y="1019" as="targetPoint" />
          </mxGeometry>
        </mxCell>
        <mxCell id="YtPlqch4qI4Q10vfU_Bz-5" value="" style="endArrow=none;dashed=1;html=1;rounded=0;" edge="1" parent="1">
          <mxGeometry width="50" height="50" relative="1" as="geometry">
            <mxPoint x="60" y="276" as="sourcePoint" />
            <mxPoint x="62" y="1024" as="targetPoint" />
          </mxGeometry>
        </mxCell>
        <mxCell id="YtPlqch4qI4Q10vfU_Bz-6" value="Phối hợp CSKH" style="text;html=1;align=center;verticalAlign=middle;whiteSpace=wrap;rounded=0;" vertex="1" parent="1">
          <mxGeometry x="411" y="243" width="99" height="30" as="geometry" />
        </mxCell>
        <mxCell id="YtPlqch4qI4Q10vfU_Bz-7" value="" style="endArrow=none;dashed=1;html=1;dashPattern=1 3;strokeWidth=2;rounded=0;" edge="1" parent="1">
          <mxGeometry width="50" height="50" relative="1" as="geometry">
            <mxPoint x="59" y="277" as="sourcePoint" />
            <mxPoint x="862" y="275" as="targetPoint" />
          </mxGeometry>
        </mxCell>
        <mxCell id="YtPlqch4qI4Q10vfU_Bz-8" value="" style="endArrow=none;dashed=1;html=1;dashPattern=1 3;strokeWidth=2;rounded=0;" edge="1" parent="1">
          <mxGeometry width="50" height="50" relative="1" as="geometry">
            <mxPoint x="63" y="314" as="sourcePoint" />
            <mxPoint x="866" y="312" as="targetPoint" />
          </mxGeometry>
        </mxCell>
        <mxCell id="YtPlqch4qI4Q10vfU_Bz-11" value="&lt;font style=&quot;font-size: 13px;&quot;&gt;TTCSKH&lt;/font&gt;" style="text;html=1;align=center;verticalAlign=middle;whiteSpace=wrap;rounded=0;" vertex="1" parent="1">
          <mxGeometry x="183" y="280" width="60" height="30" as="geometry" />
        </mxCell>
        <mxCell id="YtPlqch4qI4Q10vfU_Bz-12" value="ĐL/CTĐL" style="text;html=1;align=center;verticalAlign=middle;whiteSpace=wrap;rounded=0;" vertex="1" parent="1">
          <mxGeometry x="698" y="280" width="60" height="30" as="geometry" />
        </mxCell>
        <mxCell id="YtPlqch4qI4Q10vfU_Bz-18" style="edgeStyle=orthogonalEdgeStyle;rounded=0;orthogonalLoop=1;jettySize=auto;html=1;" edge="1" parent="1" source="YtPlqch4qI4Q10vfU_Bz-13" target="YtPlqch4qI4Q10vfU_Bz-15">
          <mxGeometry relative="1" as="geometry" />
        </mxCell>
        <mxCell id="YtPlqch4qI4Q10vfU_Bz-13" value="" style="ellipse;whiteSpace=wrap;html=1;strokeColor=#00CC52;fillColor=#CFFFD8;" vertex="1" parent="1">
          <mxGeometry x="-106" y="341.5" width="98" height="69" as="geometry" />
        </mxCell>
        <mxCell id="YtPlqch4qI4Q10vfU_Bz-14" value="Bắt đầu" style="text;html=1;align=center;verticalAlign=middle;whiteSpace=wrap;rounded=0;" vertex="1" parent="1">
          <mxGeometry x="-87" y="362" width="60" height="28" as="geometry" />
        </mxCell>
        <mxCell id="YtPlqch4qI4Q10vfU_Bz-19" style="edgeStyle=orthogonalEdgeStyle;rounded=0;orthogonalLoop=1;jettySize=auto;html=1;entryX=0.5;entryY=0;entryDx=0;entryDy=0;" edge="1" parent="1" source="YtPlqch4qI4Q10vfU_Bz-15" target="YtPlqch4qI4Q10vfU_Bz-17">
          <mxGeometry relative="1" as="geometry" />
        </mxCell>
        <mxCell id="YtPlqch4qI4Q10vfU_Bz-15" value="Khách hàng liên hệ yêu cầu" style="rounded=1;whiteSpace=wrap;html=1;strokeColor=#FF9933;fillColor=#FAE9B9;strokeWidth=2;" vertex="1" parent="1">
          <mxGeometry x="105" y="338" width="110" height="76" as="geometry" />
        </mxCell>
        <mxCell id="YtPlqch4qI4Q10vfU_Bz-32" style="edgeStyle=orthogonalEdgeStyle;rounded=0;orthogonalLoop=1;jettySize=auto;html=1;" edge="1" parent="1" source="YtPlqch4qI4Q10vfU_Bz-17" target="YtPlqch4qI4Q10vfU_Bz-20">
          <mxGeometry relative="1" as="geometry" />
        </mxCell>
        <mxCell id="YtPlqch4qI4Q10vfU_Bz-17" value="Cần ĐL/CTĐL phối hợp&lt;div&gt;&amp;nbsp;xử lý ?&lt;/div&gt;" style="rhombus;whiteSpace=wrap;html=1;strokeWidth=2;strokeColor=#5263FF;fillColor=#CCDAFF;" vertex="1" parent="1">
          <mxGeometry x="111" y="484" width="98" height="84" as="geometry" />
        </mxCell>
        <mxCell id="YtPlqch4qI4Q10vfU_Bz-37" value="" style="edgeStyle=orthogonalEdgeStyle;rounded=0;orthogonalLoop=1;jettySize=auto;html=1;" edge="1" parent="1" source="YtPlqch4qI4Q10vfU_Bz-20" target="YtPlqch4qI4Q10vfU_Bz-21">
          <mxGeometry relative="1" as="geometry" />
        </mxCell>
        <mxCell id="YtPlqch4qI4Q10vfU_Bz-20" value="Chuyển yêu cầu của KH trên chương trình CRM" style="rounded=1;whiteSpace=wrap;html=1;strokeColor=#FF9933;fillColor=#FAE9B9;strokeWidth=2;" vertex="1" parent="1">
          <mxGeometry x="306" y="488" width="110" height="76" as="geometry" />
        </mxCell>
        <mxCell id="YtPlqch4qI4Q10vfU_Bz-33" style="edgeStyle=orthogonalEdgeStyle;rounded=0;orthogonalLoop=1;jettySize=auto;html=1;" edge="1" parent="1" source="YtPlqch4qI4Q10vfU_Bz-21" target="YtPlqch4qI4Q10vfU_Bz-22">
          <mxGeometry relative="1" as="geometry" />
        </mxCell>
        <mxCell id="YtPlqch4qI4Q10vfU_Bz-21" value="Tiếp nhận yêu cầu" style="rounded=1;whiteSpace=wrap;html=1;strokeColor=#FF9933;fillColor=#FAE9B9;strokeWidth=2;" vertex="1" parent="1">
          <mxGeometry x="491" y="488" width="110" height="76" as="geometry" />
        </mxCell>
        <mxCell id="YtPlqch4qI4Q10vfU_Bz-27" style="edgeStyle=orthogonalEdgeStyle;rounded=0;orthogonalLoop=1;jettySize=auto;html=1;" edge="1" parent="1" source="YtPlqch4qI4Q10vfU_Bz-22" target="YtPlqch4qI4Q10vfU_Bz-24">
          <mxGeometry relative="1" as="geometry" />
        </mxCell>
        <mxCell id="YtPlqch4qI4Q10vfU_Bz-28" style="edgeStyle=orthogonalEdgeStyle;rounded=0;orthogonalLoop=1;jettySize=auto;html=1;" edge="1" parent="1" source="YtPlqch4qI4Q10vfU_Bz-23" target="YtPlqch4qI4Q10vfU_Bz-22">
          <mxGeometry relative="1" as="geometry">
            <Array as="points">
              <mxPoint x="746" y="669" />
            </Array>
          </mxGeometry>
        </mxCell>
        <mxCell id="YtPlqch4qI4Q10vfU_Bz-22" value="Liên hệ KH xử lý yêu cầu" style="rounded=1;whiteSpace=wrap;html=1;strokeColor=#FF9933;fillColor=#FAE9B9;strokeWidth=2;" vertex="1" parent="1">
          <mxGeometry x="491" y="631" width="110" height="76" as="geometry" />
        </mxCell>
        <mxCell id="YtPlqch4qI4Q10vfU_Bz-23" value="Nhập thông tin trở ngại trong quá trình xử lý" style="rounded=1;whiteSpace=wrap;html=1;strokeColor=#FF9933;fillColor=#FAE9B9;strokeWidth=2;" vertex="1" parent="1">
          <mxGeometry x="688" y="768" width="110" height="76" as="geometry" />
        </mxCell>
        <mxCell id="YtPlqch4qI4Q10vfU_Bz-26" style="edgeStyle=orthogonalEdgeStyle;rounded=0;orthogonalLoop=1;jettySize=auto;html=1;" edge="1" parent="1" source="YtPlqch4qI4Q10vfU_Bz-24" target="YtPlqch4qI4Q10vfU_Bz-25">
          <mxGeometry relative="1" as="geometry" />
        </mxCell>
        <mxCell id="YtPlqch4qI4Q10vfU_Bz-36" value="Không" style="edgeLabel;html=1;align=center;verticalAlign=middle;resizable=0;points=[];" vertex="1" connectable="0" parent="YtPlqch4qI4Q10vfU_Bz-26">
          <mxGeometry x="-0.0822" y="-2" relative="1" as="geometry">
            <mxPoint as="offset" />
          </mxGeometry>
        </mxCell>
        <mxCell id="YtPlqch4qI4Q10vfU_Bz-34" style="edgeStyle=orthogonalEdgeStyle;rounded=0;orthogonalLoop=1;jettySize=auto;html=1;entryX=0;entryY=0.5;entryDx=0;entryDy=0;" edge="1" parent="1" source="YtPlqch4qI4Q10vfU_Bz-24" target="YtPlqch4qI4Q10vfU_Bz-23">
          <mxGeometry relative="1" as="geometry" />
        </mxCell>
        <mxCell id="YtPlqch4qI4Q10vfU_Bz-35" value="Có" style="edgeLabel;html=1;align=center;verticalAlign=middle;resizable=0;points=[];" vertex="1" connectable="0" parent="YtPlqch4qI4Q10vfU_Bz-34">
          <mxGeometry x="-0.166" relative="1" as="geometry">
            <mxPoint as="offset" />
          </mxGeometry>
        </mxCell>
        <mxCell id="YtPlqch4qI4Q10vfU_Bz-24" value="Gặp trở ngại trong quá trình xử lý ?" style="rhombus;whiteSpace=wrap;html=1;strokeWidth=2;strokeColor=#5263FF;fillColor=#CCDAFF;" vertex="1" parent="1">
          <mxGeometry x="497" y="764" width="98" height="84" as="geometry" />
        </mxCell>
        <mxCell id="YtPlqch4qI4Q10vfU_Bz-25" value="Cập nhật kết quả xử lý yêu cầu" style="rounded=1;whiteSpace=wrap;html=1;strokeColor=#FF9933;fillColor=#FAE9B9;strokeWidth=2;" vertex="1" parent="1">
          <mxGeometry x="491" y="903" width="110" height="76" as="geometry" />
        </mxCell>
        <mxCell id="YtPlqch4qI4Q10vfU_Bz-31" value="Kết thúc" style="strokeWidth=2;html=1;shape=mxgraph.flowchart.terminator;whiteSpace=wrap;strokeColor=#00CC52;fillColor=#CFFFD8;" vertex="1" parent="1">
          <mxGeometry x="698" y="1094" width="82" height="41" as="geometry" />
        </mxCell>
        <mxCell id="YtPlqch4qI4Q10vfU_Bz-38" style="edgeStyle=orthogonalEdgeStyle;rounded=0;orthogonalLoop=1;jettySize=auto;html=1;entryX=0.5;entryY=0;entryDx=0;entryDy=0;entryPerimeter=0;" edge="1" parent="1" source="YtPlqch4qI4Q10vfU_Bz-25" target="YtPlqch4qI4Q10vfU_Bz-31">
          <mxGeometry relative="1" as="geometry">
            <Array as="points">
              <mxPoint x="546" y="1055" />
              <mxPoint x="739" y="1055" />
            </Array>
          </mxGeometry>
        </mxCell>
        <mxCell id="YtPlqch4qI4Q10vfU_Bz-39" style="edgeStyle=orthogonalEdgeStyle;rounded=0;orthogonalLoop=1;jettySize=auto;html=1;entryX=0;entryY=0.5;entryDx=0;entryDy=0;entryPerimeter=0;" edge="1" parent="1" source="YtPlqch4qI4Q10vfU_Bz-17" target="YtPlqch4qI4Q10vfU_Bz-31">
          <mxGeometry relative="1" as="geometry">
            <Array as="points">
              <mxPoint x="160" y="1115" />
            </Array>
          </mxGeometry>
        </mxCell>
        <mxCell id="YtPlqch4qI4Q10vfU_Bz-40" value="Không" style="edgeLabel;html=1;align=center;verticalAlign=middle;resizable=0;points=[];" vertex="1" connectable="0" parent="YtPlqch4qI4Q10vfU_Bz-39">
          <mxGeometry x="-0.788" relative="1" as="geometry">
            <mxPoint y="1" as="offset" />
          </mxGeometry>
        </mxCell>
        <mxCell id="YtPlqch4qI4Q10vfU_Bz-41" value="" style="endArrow=none;dashed=1;html=1;dashPattern=1 3;strokeWidth=2;rounded=0;" edge="1" parent="1">
          <mxGeometry width="50" height="50" relative="1" as="geometry">
            <mxPoint x="64" y="1026" as="sourcePoint" />
            <mxPoint x="867" y="1024" as="targetPoint" />
          </mxGeometry>
        </mxCell>
        <mxCell id="YtPlqch4qI4Q10vfU_Bz-42" value="" style="endArrow=none;dashed=1;html=1;rounded=0;" edge="1" parent="1">
          <mxGeometry width="50" height="50" relative="1" as="geometry">
            <mxPoint x="441" y="278" as="sourcePoint" />
            <mxPoint x="443" y="1026" as="targetPoint" />
          </mxGeometry>
        </mxCell>
        <mxCell id="YtPlqch4qI4Q10vfU_Bz-43" value="" style="endArrow=none;dashed=1;html=1;rounded=0;" edge="1" parent="1">
          <mxGeometry width="50" height="50" relative="1" as="geometry">
            <mxPoint x="864" y="273" as="sourcePoint" />
            <mxPoint x="866" y="1021" as="targetPoint" />
          </mxGeometry>
        </mxCell>
        <mxCell id="YtPlqch4qI4Q10vfU_Bz-44" value="" style="endArrow=none;dashed=1;html=1;dashPattern=1 3;strokeWidth=2;rounded=0;" edge="1" parent="1">
          <mxGeometry width="50" height="50" relative="1" as="geometry">
            <mxPoint x="863" y="237" as="sourcePoint" />
            <mxPoint x="867" y="1025" as="targetPoint" />
          </mxGeometry>
        </mxCell>
        <mxCell id="YtPlqch4qI4Q10vfU_Bz-45" value="" style="endArrow=none;dashed=1;html=1;dashPattern=1 3;strokeWidth=2;rounded=0;" edge="1" parent="1">
          <mxGeometry width="50" height="50" relative="1" as="geometry">
            <mxPoint x="67" y="1026" as="sourcePoint" />
            <mxPoint x="870" y="1024" as="targetPoint" />
          </mxGeometry>
        </mxCell>
      </root>
    </mxGraphModel>
  </diagram>
</mxfile>
